<svg width="4620" height="2932" viewBox="0 0 4620 2932" fill="none" xmlns="http://www.w3.org/2000/svg">
<path d="M3209.01 2931.21C2954.1 2931.21 2699.19 2930.43 2444.28 2932C2410.83 2932 2398.08 2924.91 2398.87 2888.69C2400.46 2673.68 2400.46 2457.9 2398.87 2242.91C2398.87 2209.83 2409.23 2201.16 2441.89 2201.95C2852.14 2202.74 3262.39 2199.59 3672.63 2204.31C3831.16 2205.89 3886.92 2090.91 3873.38 1974.36C3859.04 1849.93 3802.48 1801.88 3676.62 1801.88C3280.71 1801.88 2885.59 1801.88 2489.68 1801.88C2475.34 1801.88 2460.21 1800.31 2445.87 1801.88C2412.42 1805.83 2406.04 1792.44 2406.04 1759.35C2408.43 1564.83 2408.43 1371.1 2406.04 1176.58C2406.04 1142.71 2414 1131.69 2449.86 1132.48C2857.72 1133.27 3264.77 1129.32 3672.63 1134.84C3850.27 1137.2 3899.67 1000.96 3864.61 872.59C3839.12 778.086 3780.97 738.71 3680.6 738.71C3267.96 738.71 2855.32 738.709 2441.89 739.497C2410.02 739.497 2398.87 731.621 2398.87 698.545C2400.46 478.034 2399.67 257.524 2398.87 37.0142C2398.87 10.238 2406.04 0 2434.72 0C2926.22 0.78755 3416.93 -0.78755 3908.42 1.5751C4013.58 2.36256 4117.13 18.1134 4215.91 58.2777C4401.52 133.094 4513.84 270.913 4568 458.346C4592.71 544.188 4603.06 633.179 4602.26 722.959C4601.46 851.327 4601.46 980.485 4602.26 1108.85C4602.26 1250.61 4546.5 1365.59 4430.99 1450.65C4411.88 1464.82 4409.48 1471.91 4431.79 1486.08C4562.43 1567.99 4618.99 1688.47 4618.99 1838.11C4618.99 1994.05 4622.97 2150.76 4615.01 2306.7C4607.84 2450.02 4565.62 2584.7 4471.62 2699.68C4373.64 2820.16 4243 2883.17 4093.24 2913.88C3985.7 2935.93 3876.56 2930.43 3768.22 2931.21C3581.03 2932 3395.42 2931.21 3209.01 2931.21Z" fill="#EC1B24"/>
<path d="M0.774271 1464.81C0.774271 1215.9 -0.774271 966.993 1.54854 717.304C1.54854 585.023 23.2281 455.091 87.4926 336.899C188.148 149.045 351.518 55.1173 555.152 22.2428C619.416 12.0675 685.23 9.71928 751.043 9.71928C1207.86 9.71928 1663.9 9.71928 2120.72 8.93652C2148.6 8.93652 2160.22 12.8501 2160.22 45.7246C2158.67 264.888 2158.67 484.052 2160.22 703.214C2160.22 734.524 2151.69 741.568 2121.51 741.568C1735.91 740.786 1350.33 740.786 964.741 741.568C931.451 741.568 897.378 742.351 864.861 747.83C777.368 761.919 737.106 805.752 727.041 894.199C723.169 926.292 720.846 959.165 720.846 992.039C720.071 1341.13 720.846 1691.01 720.846 2040.11C720.846 2165.35 737.106 2184.13 860.989 2194.31C886.54 2196.66 912.864 2196.66 938.416 2196.66C1333.29 2196.66 1728.18 2196.66 2122.28 2195.87C2150.92 2195.87 2160.99 2201.36 2160.99 2233.44C2159.44 2451.04 2159.44 2668.64 2160.99 2887.02C2160.99 2916.76 2153.25 2923.81 2124.6 2923.03C1655.39 2922.25 1185.41 2922.25 716.2 2921.46C613.997 2921.46 512.568 2910.5 415.783 2876.06C183.502 2793.88 58.0703 2622.46 15.4854 2382.94C3.87135 2317.2 0 2250.67 0 2184.13C0 1944.62 0 1705.1 0.774271 1464.81C0 1464.81 0 1464.81 0.774271 1464.81Z" fill="white"/>
</svg>
