<svg width="52" height="33" viewBox="0 0 52 33" fill="none" xmlns="http://www.w3.org/2000/svg">
<path d="M36.143 32.5223C33.3516 32.5223 30.5602 32.5136 27.7687 32.531C27.4024 32.531 27.2628 32.4526 27.2715 32.0519C27.2889 29.6738 27.2889 27.287 27.2715 24.909C27.2715 24.5431 27.3849 24.4473 27.7426 24.456C32.235 24.4647 36.7275 24.4299 41.2199 24.4821C42.9559 24.4996 43.5665 23.2278 43.4182 21.9386C43.2612 20.5623 42.6418 20.0309 41.2636 20.0309C36.9281 20.0309 32.6014 20.0309 28.2659 20.0309C28.1089 20.0309 27.9432 20.0135 27.7862 20.0309C27.4198 20.0745 27.35 19.9264 27.35 19.5605C27.3762 17.4089 27.3762 15.2661 27.35 13.1145C27.35 12.7399 27.4372 12.618 27.8298 12.6267C32.2961 12.6354 36.7536 12.5918 41.2199 12.6528C43.1652 12.6789 43.7061 11.172 43.3222 9.75209C43.0431 8.70679 42.4063 8.27125 41.3072 8.27125C36.7885 8.27125 32.2699 8.27125 27.7426 8.27996C27.3936 8.27996 27.2715 8.19285 27.2715 7.82699C27.2889 5.38795 27.2802 2.94891 27.2715 0.509874C27.2715 0.213705 27.35 0.100464 27.664 0.100464C33.0463 0.109175 38.4198 0.091753 43.802 0.117886C44.9535 0.126596 46.0875 0.300814 47.1692 0.745067C49.2017 1.5726 50.4317 3.097 51.0248 5.17018C51.2953 6.11967 51.4087 7.10399 51.3999 8.09703C51.3912 9.5169 51.3912 10.9455 51.3999 12.3653C51.3999 13.9333 50.7893 15.2051 49.5244 16.1459C49.3151 16.3027 49.2889 16.3811 49.5332 16.5378C50.9638 17.4438 51.5831 18.7765 51.5831 20.4316C51.5831 22.1564 51.6267 23.8898 51.5395 25.6146C51.461 27.1999 50.9987 28.6895 49.9693 29.9613C48.8964 31.294 47.4658 31.9909 45.8258 32.3306C44.6482 32.5745 43.4531 32.5136 42.2667 32.5223C40.2168 32.531 38.1843 32.5223 36.143 32.5223Z" fill="#EC1B24"/>
<path d="M0.00871477 16.4865C0.00871477 13.685 -0.00871477 10.8835 0.0174295 8.07322C0.0174295 6.58438 0.261443 5.12198 0.984769 3.79172C2.11769 1.6774 3.9565 0.620234 6.24849 0.250228C6.97181 0.135703 7.71257 0.109274 8.45333 0.109274C13.595 0.109274 18.728 0.109274 23.8697 0.100464C24.1835 0.100464 24.3142 0.144512 24.3142 0.514518C24.2968 2.98123 24.2968 5.44794 24.3142 7.91464C24.3142 8.26703 24.2183 8.34632 23.8785 8.34632C19.5385 8.33751 15.1986 8.33751 10.8586 8.34632C10.4839 8.34632 10.1004 8.35513 9.7344 8.41679C8.74963 8.57537 8.29646 9.06871 8.18317 10.0642C8.13959 10.4254 8.11345 10.7954 8.11345 11.1654C8.10473 15.0945 8.11345 19.0324 8.11345 22.9616C8.11345 24.3711 8.29646 24.5825 9.69082 24.6971C9.97841 24.7235 10.2747 24.7235 10.5623 24.7235C15.0068 24.7235 19.4514 24.7235 23.8872 24.7147C24.2096 24.7147 24.3229 24.7764 24.3229 25.1375C24.3055 27.5866 24.3055 30.0357 24.3229 32.4936C24.3229 32.8284 24.2358 32.9077 23.9133 32.8989C18.6322 32.8901 13.3423 32.8901 8.06116 32.8813C6.91081 32.8813 5.76918 32.7579 4.67983 32.3703C2.0654 31.4453 0.653608 29.516 0.174295 26.8202C0.0435738 26.0802 0 25.3314 0 24.5825C0 21.8868 0 19.191 0.00871477 16.4865C0 16.4865 0 16.4865 0.00871477 16.4865Z" fill="white"/>
</svg>
