<svg width="21323" height="2932" viewBox="0 0 21323 2932" fill="none" xmlns="http://www.w3.org/2000/svg">
<g clip-path="url(#clip0_109779_3196)">
<path d="M3209.01 2931.21C2954.1 2931.21 2699.19 2930.43 2444.28 2932C2410.83 2932 2398.08 2924.91 2398.87 2888.69C2400.46 2673.68 2400.46 2457.9 2398.87 2242.91C2398.87 2209.83 2409.23 2201.16 2441.89 2201.95C2852.14 2202.74 3262.39 2199.59 3672.63 2204.31C3831.16 2205.89 3886.92 2090.91 3873.38 1974.36C3859.04 1849.93 3802.48 1801.88 3676.62 1801.88C3280.71 1801.88 2885.59 1801.88 2489.68 1801.88C2475.34 1801.88 2460.21 1800.31 2445.87 1801.88C2412.42 1805.83 2406.04 1792.44 2406.04 1759.35C2408.43 1564.83 2408.43 1371.1 2406.04 1176.58C2406.04 1142.71 2414 1131.69 2449.86 1132.48C2857.72 1133.27 3264.77 1129.32 3672.63 1134.84C3850.27 1137.2 3899.67 1000.96 3864.61 872.59C3839.12 778.086 3780.97 738.71 3680.6 738.71C3267.96 738.71 2855.32 738.709 2441.89 739.497C2410.02 739.497 2398.87 731.621 2398.87 698.545C2400.46 478.034 2399.67 257.524 2398.87 37.0142C2398.87 10.238 2406.04 0 2434.72 0C2926.22 0.78755 3416.93 -0.78755 3908.42 1.5751C4013.58 2.36256 4117.13 18.1134 4215.91 58.2777C4401.52 133.094 4513.84 270.913 4568 458.346C4592.71 544.188 4603.06 633.179 4602.26 722.959C4601.46 851.327 4601.46 980.485 4602.26 1108.85C4602.26 1250.61 4546.5 1365.59 4430.99 1450.65C4411.88 1464.82 4409.48 1471.91 4431.79 1486.08C4562.43 1567.99 4618.99 1688.47 4618.99 1838.11C4618.99 1994.05 4622.97 2150.76 4615.01 2306.7C4607.84 2450.02 4565.62 2584.7 4471.62 2699.68C4373.64 2820.16 4243 2883.17 4093.24 2913.88C3985.7 2935.93 3876.56 2930.43 3768.22 2931.21C3581.03 2932 3395.42 2931.21 3209.01 2931.21Z" fill="#EC1B24"/>
<path d="M0.774271 1464.81C0.774271 1215.9 -0.774271 966.993 1.54854 717.304C1.54854 585.023 23.2281 455.091 87.4926 336.899C188.148 149.045 351.518 55.1173 555.152 22.2428C619.416 12.0675 685.23 9.71928 751.043 9.71928C1207.86 9.71928 1663.9 9.71928 2120.72 8.93652C2148.6 8.93652 2160.22 12.8501 2160.22 45.7246C2158.67 264.888 2158.67 484.052 2160.22 703.214C2160.22 734.524 2151.69 741.568 2121.51 741.568C1735.91 740.786 1350.33 740.786 964.741 741.568C931.451 741.568 897.378 742.351 864.861 747.83C777.368 761.919 737.106 805.752 727.041 894.199C723.169 926.292 720.846 959.165 720.846 992.039C720.071 1341.13 720.846 1691.01 720.846 2040.11C720.846 2165.35 737.106 2184.13 860.989 2194.31C886.54 2196.66 912.864 2196.66 938.416 2196.66C1333.29 2196.66 1728.18 2196.66 2122.28 2195.87C2150.92 2195.87 2160.99 2201.36 2160.99 2233.44C2159.44 2451.04 2159.44 2668.64 2160.99 2887.02C2160.99 2916.76 2153.25 2923.81 2124.6 2923.03C1655.39 2922.25 1185.41 2922.25 716.2 2921.46C613.997 2921.46 512.568 2910.5 415.783 2876.06C183.502 2793.88 58.0703 2622.46 15.4854 2382.94C3.87135 2317.2 0 2250.67 0 2184.13C0 1944.62 0 1705.1 0.774271 1464.81C0 1464.81 0 1464.81 0.774271 1464.81Z" fill="white"/>
<path d="M20493.4 522.998C20617.7 522.998 20745.5 519.724 20869.9 522.998C21069.6 532.821 21210.4 631.051 21282.5 817.687C21305.4 876.624 21364.3 974.854 21275.9 997.777C21194.1 1020.69 21056.6 1059.99 21007.4 965.028C20941.9 834.059 20847 834.059 20738.9 834.059C20558.8 834.059 20378.7 834.059 20198.7 834.059C20077.6 834.059 19969.5 860.252 19972.7 1004.33C19976 1145.11 20084 1171.32 20205.2 1171.32C20391.9 1168.04 20575.2 1168.04 20761.9 1171.32C21086 1174.59 21315.2 1400.52 21315.2 1711.58C21315.2 2032.46 21086 2264.93 20758.6 2268.21C20571.9 2271.48 20388.6 2271.48 20201.9 2268.21C19953.1 2264.93 19746.9 2107.77 19684.6 1872.02C19671.5 1822.9 19619.1 1731.22 19704.2 1721.4C19789.4 1711.58 19917.1 1652.63 19966.2 1763.96C20035 1927.68 20152.8 1960.42 20306.7 1953.88C20454.1 1947.33 20601.4 1957.15 20748.8 1953.88C20902.7 1950.6 21004.1 1849.1 21007.4 1714.85C21007.4 1583.88 20899.4 1479.1 20748.8 1475.83C20552.3 1472.55 20355.8 1475.83 20159.4 1472.55C19854.9 1466 19658.5 1269.55 19665 984.681C19671.5 712.909 19874.5 522.998 20166 519.724C20274 519.724 20385.3 519.724 20493.4 522.998Z" fill="white"/>
<path d="M14491.7 2251.84C14026.8 1894.93 13565.2 1541.31 13070.7 1164.76C13070.7 1515.12 13064.2 1822.9 13074 2130.68C13080.6 2264.93 13024.9 2278.03 12913.6 2278.03C12802.2 2278.03 12753.2 2261.66 12756.4 2130.68C12766.3 1610.07 12759.7 1086.18 12759.7 529.543C13247.5 899.538 13709.3 1256.44 14200.3 1629.71C14200.3 1292.46 14206.9 984.672 14197.1 676.887C14193.8 549.189 14229.8 513.171 14354.3 516.446C14478.7 516.446 14521.2 542.641 14517.9 676.887C14508.2 1145.11 14514.7 1613.35 14511.5 2081.57C14514.7 2133.96 14534.3 2192.9 14491.7 2251.84Z" fill="white"/>
<path d="M9724.44 1407.06C9724.44 1659.18 9714.67 1908.03 9727.73 2160.16C9734.3 2320.6 9629.56 2264.93 9557.5 2268.2C9482.16 2271.48 9397.05 2297.68 9410.11 2153.61C9426.54 1963.69 9410.11 1773.78 9416.68 1580.6C9419.97 1492.19 9393.76 1456.17 9298.78 1456.17C9004.17 1462.72 8709.46 1462.72 8414.78 1456.17C8316.55 1452.9 8280.54 1479.1 8283.81 1583.88C8290.36 1773.78 8280.54 1966.97 8290.36 2156.88C8293.63 2258.39 8251.07 2284.58 8165.94 2264.93C8093.9 2248.56 7966.21 2336.96 7969.48 2160.16C7972.76 1649.36 7972.76 1135.29 7969.48 624.497C7966.21 464.055 8077.53 529.542 8149.56 519.719C8224.88 509.896 8300.18 503.346 8290.36 627.771C8277.26 762.017 8290.36 899.538 8287.09 1037.06C8283.81 1115.64 8300.18 1154.93 8391.86 1154.93C8696.36 1148.38 9000.88 1151.66 9308.64 1154.93C9397.05 1154.93 9419.97 1118.92 9419.97 1040.34C9416.68 902.816 9429.83 765.292 9416.68 631.045C9403.62 486.975 9495.31 519.719 9570.56 519.719C9649.19 519.719 9744.08 483.701 9737.59 637.594C9714.67 892.99 9724.44 1151.66 9724.44 1407.06Z" fill="white"/>
<path d="M7033.04 2271.48C6869.33 2258.39 6672.87 2294.41 6479.7 2238.74C6070.42 2124.14 5788.83 1714.85 5841.22 1308.84C5900.15 847.153 6247.22 529.543 6695.8 522.995C6947.91 519.72 7196.75 526.269 7448.87 519.72C7563.46 516.446 7599.48 549.189 7592.93 663.791C7586.39 771.843 7589.66 847.153 7439.04 837.329C7216.4 824.232 6993.75 830.781 6767.83 834.055C6404.39 837.329 6155.55 1063.26 6149 1390.69C6145.72 1714.85 6394.56 1947.33 6758.01 1957.15C6987.2 1960.42 7216.4 1966.97 7445.59 1957.15C7583.11 1950.6 7592.93 2012.81 7589.66 2124.14C7589.66 2225.65 7579.84 2287.86 7452.14 2278.03C7324.44 2261.66 7193.47 2271.48 7033.04 2271.48Z" fill="white"/>
<path d="M10903.2 513.173C11204.4 1112.37 11492.6 1682.11 11787.3 2261.66C11728.3 2264.93 11692.3 2264.93 11656.2 2271.48C11499.1 2300.95 11413.9 2235.46 11348.5 2088.13C11217.5 1799.98 11066.9 1524.94 10906.4 1213.87C10801.7 1416.88 10710 1593.7 10618.3 1767.24C10579.1 1845.82 10529.9 1921.14 10503.7 1999.71C10425.2 2232.19 10281.1 2333.69 10019.1 2245.29C10304 1685.38 10595.4 1112.37 10903.2 513.173Z" fill="white"/>
<path d="M12068.8 1380.87C12068.8 1128.74 12075.4 879.895 12065.5 627.772C12059 464.055 12173.6 532.817 12242.3 522.994C12321 509.897 12383.2 509.897 12383.2 631.046C12376.6 1138.57 12373.3 1646.09 12383.2 2153.61C12386.4 2323.87 12271.8 2255.11 12196.5 2268.2C12104.8 2284.58 12059 2261.66 12065.5 2150.33C12075.4 1894.93 12068.8 1636.26 12068.8 1380.87Z" fill="white"/>
<path d="M19285.2 1400.52C19285.2 1652.63 19278.7 1901.49 19288.5 2153.61C19295 2307.5 19200.1 2264.93 19118.2 2268.21C19036.4 2271.48 18964.3 2287.86 18967.6 2150.34C18977.5 1649.37 18977.5 1145.11 18967.6 644.147C18964.3 503.351 19039.7 519.723 19128.1 519.723C19216.5 519.723 19295 506.625 19288.5 647.422C19275.4 896.268 19285.2 1148.39 19285.2 1400.52Z" fill="white"/>
<path d="M18361.9 896.268C18424 866.796 18466.6 853.699 18525.6 929.009C18771.2 1243.35 18659.8 1891.66 18322.6 2101.21C18257.1 2140.51 18221 2101.21 18181.8 2065.19C18070.4 1970.24 17962.4 1872.01 17857.7 1770.51C17798.7 1711.57 17756.1 1711.57 17697.2 1770.51C17589.2 1878.56 17471.3 1973.52 17363.2 2081.57C17297.8 2143.78 17251.9 2124.14 17199.5 2071.74C17137.3 2012.81 17160.2 1970.24 17212.6 1924.4C17373 1777.06 17533.5 1632.99 17690.6 1482.37C17723.4 1449.63 17795.5 1423.43 17746.3 1351.39C17766 1331.75 17788.9 1331.75 17811.8 1338.3C17919.8 1466 18044.2 1580.6 18168.7 1691.92C18270.2 1783.61 18316 1770.51 18368.4 1639.54C18433.9 1479.1 18447 1315.38 18371.7 1151.66C18338.9 1082.9 18293.1 1020.69 18316 935.557C18319.3 912.634 18335.6 899.538 18361.9 896.268Z" fill="white"/>
<path d="M17808.5 1351.39C17785.6 1351.39 17762.7 1351.39 17739.8 1351.39C17618.6 1243.35 17487.6 1145.11 17373 1027.24C17278.1 932.287 17232.3 968.298 17183.1 1063.26C17068.5 1285.91 17055.5 1511.84 17186.4 1731.22C17235.6 1813.08 17238.8 1868.74 17153.6 1917.86C17052.2 1976.79 17032.5 1885.11 16999.8 1829.44C16803.3 1469.27 16868.8 1056.71 17153.6 762.019C17245.3 667.064 17324 660.515 17412.4 762.019C17461.4 817.682 17523.7 866.798 17579.3 915.912C17779 1086.17 17782.3 1089.45 17982 912.634C18057.4 843.878 18126.1 765.293 18198.1 693.258C18384.8 693.258 18433.9 752.197 18361.9 896.268C18355.3 906.086 18348.8 915.912 18342.2 922.46C18227.6 1063.26 18083.5 1174.59 17952.5 1295.73C17916.6 1328.48 17870.7 1364.49 17808.5 1351.39Z" fill="white"/>
<path d="M18198.1 693.262C18103.2 752.2 18011.5 775.121 17893.6 735.83C17798.7 703.086 17690.6 712.909 17589.2 748.926C17517.1 775.121 17451.6 768.572 17395.9 703.086C17350.1 650.697 17340.3 611.404 17412.4 581.936C17651.4 486.98 17887.1 477.157 18126.2 581.936C18181.8 601.581 18208 634.325 18198.1 693.262Z" fill="white"/>
<path d="M17772.5 2271.48C17654.6 2271.48 17556.5 2271.48 17468.1 2225.64C17428.7 2205.99 17353.5 2202.72 17376.4 2140.5C17396 2081.57 17445.1 2019.36 17520.4 2035.73C17690.7 2078.29 17860.9 2088.12 18031.2 2029.18C18106.5 2002.98 18152.4 2081.57 18175.3 2133.95C18204.7 2196.17 18126.1 2209.27 18086.9 2225.64C17982 2268.2 17867.5 2281.3 17772.5 2271.48Z" fill="white"/>
<path d="M16489 1331.75C16433.3 1276.09 16413.6 1236.8 16439.9 1151.66C16547.9 820.957 16338.4 526.268 15991.3 522.994C15663.9 516.446 15336.5 526.268 15012.3 519.72C14904.2 516.445 14887.9 559.012 14891.2 650.693C14897.7 896.268 14894.5 1141.84 14894.5 1384.14C14894.5 1646.09 14894.5 1908.03 14894.5 2166.7C14894.5 2225.64 14894.5 2271.48 14976.3 2268.2C15372.5 2264.93 15771.9 2274.75 16168.1 2258.39C16384.2 2248.56 16541.4 2107.77 16610.2 1901.48C16682.1 1695.2 16655.9 1492.19 16489 1331.75ZM15333.2 830.781C15539.5 843.878 15745.7 834.055 15952 834.055C16063.3 834.055 16155 866.798 16151.7 994.499C16151.7 1115.64 16066.6 1161.49 15952 1158.21C15847.3 1154.94 15745.7 1158.21 15641 1158.21C15536.2 1158.21 15434.7 1148.39 15329.9 1161.49C15166.2 1177.86 15212 1066.53 15205.5 981.403C15205.5 892.99 15198.9 820.957 15333.2 830.781ZM16053.6 1953.88C15935.7 1957.15 15814.5 1953.88 15696.7 1953.88C15572.2 1953.88 15447.8 1950.6 15323.3 1957.15C15234.9 1960.42 15215.3 1927.67 15215.3 1842.55C15202.2 1459.45 15202.2 1459.45 15575.5 1459.45C15739.2 1459.45 15899.6 1456.17 16063.3 1459.45C16223.8 1462.72 16335.1 1567.5 16338.4 1701.75C16335.1 1852.37 16227.1 1950.6 16053.6 1953.88Z" fill="white"/>
<path d="M18443.7 968.307C18564.9 1056.71 18571.4 1194.23 18584.5 1315.38C18614 1560.95 18525.6 1773.79 18361.9 1957.15C18299.7 2029.18 18250.5 2042.28 18178.5 1963.69C18080.3 1862.19 17965.7 1777.06 17867.4 1675.56C17795.5 1600.25 17746.3 1616.62 17680.9 1682.11C17556.4 1806.53 17428.7 1930.95 17281.4 2029.18C17242 1970.25 17287.9 1950.6 17310.8 1927.68C17402.5 1842.55 17497.5 1760.69 17589.2 1675.56C17788.9 1492.19 17788.9 1492.19 17991.9 1682.11C18040.9 1727.94 18086.8 1770.51 18135.9 1816.36C18283.3 1960.42 18329.2 1957.15 18430.6 1770.51C18551.8 1554.4 18568.2 1328.48 18473.2 1096C18453.5 1059.99 18414.3 1027.24 18443.7 968.307Z" fill="white"/>
<path d="M17107.8 1816.36C16950.6 1659.18 16911.4 1331.76 17019.4 1092.73C17029.3 1073.09 17039 1053.44 17048.9 1033.8C17206.1 739.104 17248.6 732.555 17490.9 942.114C17785.6 1200.78 17785.6 1200.78 18077 925.739C18129.3 876.625 18181.8 834.059 18237.5 788.219C18247.2 778.395 18266.9 781.67 18280 778.396C18309.4 827.51 18273.5 853.704 18247.2 876.625C18132.6 984.681 18011.5 1086.18 17896.9 1194.23C17815.1 1272.82 17746.3 1295.74 17654.6 1190.96C17566.2 1089.45 17451.6 1010.87 17356.7 912.643C17287.9 843.881 17238.8 853.704 17186.4 925.739C17012.9 1154.94 16973.6 1403.79 17071.8 1678.84C17091.5 1721.4 17134 1760.69 17107.8 1816.36Z" fill="white"/>
<path d="M17471.3 2107.76C17684.1 2140.51 17864.1 2147.06 18067.2 2104.49C17939.5 2232.19 17631.7 2235.46 17471.3 2107.76Z" fill="white"/>
</g>
<defs>
<clipPath id="clip0_109779_3196">
<rect width="21323" height="2932" fill="white"/>
</clipPath>
</defs>
</svg>
