<svg width="240" height="33" viewBox="0 0 240 33" fill="none" xmlns="http://www.w3.org/2000/svg">
<path d="M36.143 32.5223C33.3516 32.5223 30.5602 32.5136 27.7687 32.531C27.4024 32.531 27.2628 32.4526 27.2715 32.0519C27.2889 29.6738 27.2889 27.287 27.2715 24.909C27.2715 24.5431 27.3849 24.4473 27.7426 24.456C32.235 24.4647 36.7275 24.4299 41.2199 24.4821C42.9559 24.4996 43.5665 23.2278 43.4182 21.9386C43.2612 20.5623 42.6418 20.0309 41.2636 20.0309C36.9281 20.0309 32.6014 20.0309 28.2659 20.0309C28.1089 20.0309 27.9432 20.0135 27.7862 20.0309C27.4198 20.0745 27.35 19.9264 27.35 19.5605C27.3762 17.4089 27.3762 15.2661 27.35 13.1145C27.35 12.7399 27.4372 12.618 27.8298 12.6267C32.2961 12.6354 36.7536 12.5918 41.2199 12.6528C43.1652 12.6789 43.7061 11.172 43.3222 9.75209C43.0431 8.70679 42.4063 8.27125 41.3072 8.27125C36.7885 8.27125 32.2699 8.27125 27.7426 8.27996C27.3936 8.27996 27.2715 8.19285 27.2715 7.82699C27.2889 5.38795 27.2802 2.94891 27.2715 0.509874C27.2715 0.213705 27.35 0.100464 27.664 0.100464C33.0463 0.109175 38.4198 0.091753 43.802 0.117886C44.9535 0.126596 46.0875 0.300814 47.1692 0.745067C49.2017 1.5726 50.4317 3.097 51.0248 5.17018C51.2953 6.11967 51.4087 7.10399 51.3999 8.09703C51.3912 9.5169 51.3912 10.9455 51.3999 12.3653C51.3999 13.9333 50.7893 15.2051 49.5244 16.1459C49.3151 16.3027 49.2889 16.3811 49.5332 16.5378C50.9638 17.4438 51.5831 18.7765 51.5831 20.4316C51.5831 22.1564 51.6267 23.8898 51.5395 25.6146C51.461 27.1999 50.9987 28.6895 49.9693 29.9613C48.8964 31.294 47.4658 31.9909 45.8258 32.3306C44.6482 32.5745 43.4531 32.5136 42.2667 32.5223C40.2168 32.531 38.1843 32.5223 36.143 32.5223Z" fill="#EC1B24"/>
<path d="M0.00871477 16.4865C0.00871477 13.685 -0.00871477 10.8835 0.0174295 8.07322C0.0174295 6.58438 0.261443 5.12198 0.984769 3.79172C2.11769 1.6774 3.9565 0.620234 6.24849 0.250228C6.97181 0.135703 7.71257 0.109274 8.45333 0.109274C13.595 0.109274 18.728 0.109274 23.8697 0.100464C24.1835 0.100464 24.3142 0.144512 24.3142 0.514518C24.2968 2.98123 24.2968 5.44794 24.3142 7.91464C24.3142 8.26703 24.2183 8.34632 23.8785 8.34632C19.5385 8.33751 15.1986 8.33751 10.8586 8.34632C10.4839 8.34632 10.1004 8.35513 9.7344 8.41679C8.74963 8.57537 8.29646 9.06871 8.18317 10.0642C8.13959 10.4254 8.11345 10.7954 8.11345 11.1654C8.10473 15.0945 8.11345 19.0324 8.11345 22.9616C8.11345 24.3711 8.29646 24.5825 9.69082 24.6971C9.97841 24.7235 10.2747 24.7235 10.5623 24.7235C15.0068 24.7235 19.4514 24.7235 23.8872 24.7147C24.2096 24.7147 24.3229 24.7764 24.3229 25.1375C24.3055 27.5866 24.3055 30.0357 24.3229 32.4936C24.3229 32.8284 24.2358 32.9077 23.9133 32.8989C18.6322 32.8901 13.3423 32.8901 8.06116 32.8813C6.91081 32.8813 5.76918 32.7579 4.67983 32.3703C2.0654 31.4453 0.653608 29.516 0.174295 26.8202C0.0435738 26.0802 0 25.3314 0 24.5825C0 21.8868 0 19.191 0.00871477 16.4865C0 16.4865 0 16.4865 0.00871477 16.4865Z" fill="white"/>
<path d="M230.662 5.8864C232.062 5.8864 233.5 5.84955 234.9 5.8864C237.148 5.99696 238.733 7.10255 239.544 9.20316C239.802 9.86651 240.465 10.9721 239.47 11.2301C238.549 11.488 237.001 11.9303 236.448 10.8615C235.711 9.38743 234.642 9.38743 233.426 9.38743C231.399 9.38743 229.372 9.38743 227.345 9.38743C225.982 9.38743 224.766 9.68224 224.802 11.3038C224.839 12.8884 226.055 13.1833 227.419 13.1833C229.52 13.1464 231.583 13.1464 233.684 13.1833C237.332 13.2201 239.912 15.763 239.912 19.264C239.912 22.8756 237.332 25.4921 233.647 25.529C231.546 25.5658 229.483 25.5658 227.382 25.529C224.581 25.4921 222.26 23.7232 221.559 21.0698C221.412 20.517 220.822 19.4851 221.78 19.3746C222.739 19.264 224.176 18.6006 224.729 19.8536C225.503 21.6963 226.829 22.0648 228.561 21.9911C230.22 21.9174 231.878 22.028 233.537 21.9911C235.269 21.9542 236.411 20.8118 236.448 19.3008C236.448 17.8267 235.232 16.6474 233.537 16.6106C231.325 16.5737 229.114 16.6106 226.903 16.5737C223.476 16.5 221.265 14.2889 221.338 11.0827C221.412 8.02387 223.697 5.8864 226.977 5.84955C228.193 5.84955 229.446 5.84955 230.662 5.8864Z" fill="white"/>
<path d="M163.111 25.3447C157.878 21.3277 152.682 17.3476 147.117 13.1095C147.117 17.0528 147.044 20.517 147.154 23.9811C147.228 25.4921 146.601 25.6395 145.348 25.6395C144.095 25.6395 143.543 25.4552 143.579 23.9811C143.69 18.1215 143.616 12.2251 143.616 5.96007C149.107 10.1244 154.304 14.1414 159.831 18.3426C159.831 14.5468 159.905 11.0826 159.795 7.61844C159.758 6.18118 160.163 5.7758 161.564 5.81266C162.964 5.81266 163.443 6.10748 163.406 7.61844C163.296 12.8884 163.369 18.1584 163.333 23.4283C163.369 24.018 163.59 24.6813 163.111 25.3447Z" fill="white"/>
<path d="M109.453 15.8366C109.453 18.6743 109.343 21.4751 109.49 24.3128C109.564 26.1186 108.385 25.4921 107.574 25.5289C106.726 25.5658 105.768 25.8606 105.915 24.2391C106.1 22.1016 105.915 19.9641 105.989 17.7898C106.026 16.7948 105.731 16.3894 104.662 16.3894C101.346 16.4631 98.0289 16.4631 94.7121 16.3894C93.6065 16.3526 93.2012 16.6474 93.238 17.8267C93.3117 19.9641 93.2012 22.1385 93.3117 24.2759C93.3486 25.4184 92.8695 25.7132 91.9113 25.4921C91.1005 25.3078 89.6633 26.3028 89.7001 24.3128C89.737 18.5637 89.737 12.7778 89.7001 7.02878C89.6633 5.22299 90.9163 5.96005 91.727 5.84949C92.5747 5.73893 93.4223 5.66522 93.3117 7.06563C93.1643 8.57659 93.3117 10.1244 93.2749 11.6722C93.238 12.5567 93.4223 12.9989 94.4542 12.9989C97.8815 12.9252 101.309 12.9621 104.773 12.9989C105.768 12.9989 106.026 12.5936 106.026 11.7091C105.989 10.1613 106.137 8.61345 105.989 7.10248C105.842 5.48096 106.874 5.84949 107.721 5.84949C108.606 5.84949 109.674 5.44411 109.601 7.17619C109.343 10.0507 109.453 12.9621 109.453 15.8366Z" fill="white"/>
<path d="M79.16 25.5658C77.3174 25.4184 75.1062 25.8238 72.9319 25.1973C68.3253 23.9074 65.1559 19.3008 65.7456 14.7311C66.4089 9.5348 70.3153 5.96007 75.3642 5.88637C78.2019 5.84951 81.0027 5.92322 83.8404 5.84951C85.1302 5.81266 85.5356 6.18119 85.4619 7.47104C85.3882 8.68718 85.425 9.5348 83.7298 9.42424C81.2238 9.27683 78.7178 9.35054 76.175 9.38739C72.0843 9.42424 69.2835 11.9671 69.2098 15.6524C69.1729 19.3008 71.9737 21.9174 76.0644 22.0279C78.6441 22.0648 81.2238 22.1385 83.8035 22.0279C85.3513 21.9542 85.4619 22.6544 85.425 23.9074C85.425 25.0499 85.3145 25.7501 83.8772 25.6395C82.4399 25.4552 80.9658 25.5658 79.16 25.5658Z" fill="white"/>
<path d="M122.72 5.77582C126.111 12.5199 129.354 18.9323 132.671 25.4553C132.007 25.4921 131.602 25.4921 131.196 25.5658C129.428 25.8975 128.469 25.1604 127.732 23.5021C126.258 20.259 124.563 17.1634 122.757 13.6623C121.578 15.9472 120.546 17.9373 119.514 19.8905C119.072 20.7749 118.519 21.6226 118.224 22.507C117.34 25.1236 115.718 26.266 112.77 25.271C115.976 18.9692 119.256 12.5199 122.72 5.77582Z" fill="white"/>
<path d="M135.84 15.5418C135.84 12.7041 135.914 9.90332 135.803 7.06565C135.729 5.223 137.019 5.99692 137.793 5.88636C138.678 5.73895 139.378 5.73895 139.378 7.1025C139.304 12.8147 139.267 18.5269 139.378 24.2391C139.415 26.1554 138.125 25.3815 137.277 25.5289C136.245 25.7132 135.729 25.4552 135.803 24.2022C135.914 21.3277 135.84 18.4163 135.84 15.5418Z" fill="white"/>
<path d="M217.064 15.763C217.064 18.6006 216.99 21.4015 217.101 24.2391C217.174 25.9712 216.106 25.4921 215.184 25.529C214.263 25.5658 213.452 25.7501 213.489 24.2023C213.6 18.5638 213.6 12.8884 213.489 7.24995C213.452 5.66528 214.3 5.84955 215.295 5.84955C216.29 5.84955 217.174 5.70213 217.101 7.28681C216.953 10.0876 217.064 12.9253 217.064 15.763Z" fill="white"/>
<path d="M206.671 10.0876C207.371 9.75589 207.85 9.60848 208.514 10.4561C211.278 13.994 210.025 21.2908 206.229 23.6494C205.492 24.0917 205.086 23.6494 204.644 23.244C203.391 22.1753 202.175 21.0697 200.996 19.9273C200.332 19.2639 199.853 19.2639 199.19 19.9273C197.974 21.1434 196.647 22.2122 195.431 23.4283C194.694 24.1285 194.178 23.9074 193.588 23.3177C192.888 22.6544 193.146 22.1753 193.736 21.6594C195.541 20.001 197.347 18.3795 199.116 16.6842C199.485 16.3157 200.296 16.0209 199.743 15.2101C199.964 14.989 200.222 14.989 200.48 15.0627C201.696 16.5 203.096 17.7898 204.497 19.0428C205.639 20.0747 206.155 19.9273 206.745 18.4532C207.482 16.6474 207.629 14.8047 206.782 12.9621C206.413 12.1882 205.897 11.488 206.155 10.5298C206.192 10.2718 206.376 10.1244 206.671 10.0876Z" fill="white"/>
<path d="M200.443 15.2101C200.185 15.2101 199.927 15.2101 199.669 15.2101C198.305 13.994 196.831 12.8884 195.541 11.5617C194.473 10.493 193.957 10.8983 193.404 11.9671C192.114 14.4731 191.967 17.0159 193.441 19.4851C193.994 20.4064 194.03 21.0329 193.072 21.5857C191.93 22.249 191.709 21.2171 191.34 20.5906C189.129 16.5368 189.866 11.8934 193.072 8.57661C194.104 7.50788 194.989 7.43417 195.984 8.57661C196.536 9.20311 197.237 9.75591 197.863 10.3087C200.111 12.225 200.148 12.2619 202.396 10.2718C203.244 9.49794 204.017 8.61346 204.828 7.8027C206.929 7.8027 207.482 8.46606 206.671 10.0876C206.597 10.1981 206.524 10.3087 206.45 10.3824C205.16 11.9671 203.538 13.2201 202.064 14.5836C201.659 14.9522 201.143 15.3575 200.443 15.2101Z" fill="white"/>
<path d="M204.828 7.80275C203.76 8.4661 202.728 8.72408 201.401 8.28185C200.332 7.91332 199.116 8.02387 197.974 8.42925C197.163 8.72408 196.426 8.65037 195.799 7.91332C195.283 7.32367 195.173 6.88143 195.984 6.54976C198.674 5.48102 201.327 5.37046 204.018 6.54976C204.644 6.77087 204.939 7.1394 204.828 7.80275Z" fill="white"/>
<path d="M200.038 25.5658C198.711 25.5658 197.606 25.5658 196.611 25.0498C196.168 24.8287 195.321 24.7919 195.579 24.0916C195.8 23.4283 196.353 22.7281 197.2 22.9124C199.117 23.3914 201.033 23.502 202.949 22.8387C203.797 22.5438 204.313 23.4283 204.571 24.0179C204.902 24.7181 204.018 24.8656 203.576 25.0498C202.396 25.5289 201.107 25.6763 200.038 25.5658Z" fill="white"/>
<path d="M185.591 14.989C184.964 14.3625 184.743 13.9203 185.038 12.9621C186.254 9.23997 183.896 5.92321 179.989 5.88636C176.304 5.81266 172.619 5.92321 168.97 5.84951C167.754 5.81265 167.57 6.29174 167.607 7.32362C167.68 10.0876 167.644 12.8515 167.644 15.5787C167.644 18.5269 167.644 21.4751 167.644 24.3865C167.644 25.0498 167.644 25.5658 168.565 25.5289C173.024 25.4921 177.52 25.6026 181.979 25.4184C184.412 25.3078 186.181 23.7232 186.955 21.4014C187.765 19.0797 187.47 16.7948 185.591 14.989ZM172.582 9.35053C174.904 9.49794 177.225 9.38738 179.547 9.38738C180.8 9.38738 181.832 9.75591 181.795 11.1932C181.795 12.5567 180.837 13.0727 179.547 13.0358C178.368 12.999 177.225 13.0358 176.046 13.0358C174.867 13.0358 173.724 12.9253 172.545 13.0727C170.702 13.2569 171.218 12.0039 171.145 11.0458C171.145 10.0507 171.071 9.23997 172.582 9.35053ZM180.69 21.9911C179.363 22.0279 177.999 21.9911 176.673 21.9911C175.272 21.9911 173.872 21.9542 172.471 22.0279C171.476 22.0648 171.255 21.6962 171.255 20.7381C171.108 16.4263 171.108 16.4263 175.309 16.4263C177.152 16.4263 178.957 16.3894 180.8 16.4263C182.606 16.4631 183.859 17.6424 183.896 19.1534C183.859 20.8486 182.643 21.9542 180.69 21.9911Z" fill="white"/>
<path d="M207.592 10.8984C208.956 11.8934 209.03 13.4412 209.177 14.8048C209.509 17.5687 208.514 19.9642 206.671 22.0279C205.971 22.8387 205.418 22.9861 204.607 22.1016C203.502 20.9592 202.212 20.001 201.106 18.8586C200.296 18.011 199.743 18.1952 199.006 18.9323C197.605 20.3327 196.168 21.7331 194.51 22.8387C194.067 22.1754 194.583 21.9542 194.841 21.6963C195.873 20.7381 196.942 19.8168 197.974 18.8586C200.222 16.7948 200.222 16.7948 202.507 18.9323C203.059 19.4482 203.575 19.9273 204.128 20.4433C205.787 22.0648 206.303 22.0279 207.445 19.9273C208.809 17.495 208.993 14.9522 207.924 12.3356C207.703 11.9303 207.261 11.5617 207.592 10.8984Z" fill="white"/>
<path d="M192.556 20.4433C190.787 18.6743 190.345 14.9891 191.561 12.2988C191.672 12.0777 191.782 11.8566 191.893 11.6355C193.662 8.3187 194.141 8.24499 196.868 10.6036C200.185 13.5149 200.185 13.5149 203.465 10.4193C204.054 9.86651 204.644 9.38743 205.271 8.87149C205.381 8.76093 205.602 8.79778 205.75 8.76093C206.081 9.31372 205.676 9.60854 205.381 9.86651C204.091 11.0827 202.728 12.2251 201.438 13.4412C200.517 14.3257 199.743 14.5837 198.711 13.4044C197.716 12.2619 196.426 11.3775 195.357 10.2719C194.583 9.49798 194.03 9.60854 193.441 10.4193C191.488 12.999 191.045 15.7998 192.151 18.8955C192.372 19.3745 192.851 19.8168 192.556 20.4433Z" fill="white"/>
<path d="M196.647 23.7231C199.043 24.0917 201.069 24.1654 203.354 23.6863C201.917 25.1235 198.453 25.1604 196.647 23.7231Z" fill="white"/>
</svg>
