<svg width="175" height="21" viewBox="0 0 175 21" fill="none" xmlns="http://www.w3.org/2000/svg">
<path d="M165.662 0.886403C167.062 0.886403 168.5 0.849551 169.9 0.886403C172.148 0.996962 173.733 2.10255 174.544 4.20316C174.802 4.86651 175.465 5.9721 174.47 6.23007C173.549 6.48804 172.001 6.93027 171.448 5.86154C170.711 4.38743 169.642 4.38743 168.426 4.38743C166.399 4.38743 164.372 4.38743 162.345 4.38743C160.982 4.38743 159.766 4.68224 159.802 6.30377C159.839 7.88844 161.055 8.18327 162.419 8.18327C164.52 8.14641 166.583 8.14641 168.684 8.18327C172.332 8.22012 174.912 10.763 174.912 14.264C174.912 17.8756 172.332 20.4921 168.647 20.529C166.546 20.5658 164.483 20.5658 162.382 20.529C159.581 20.4921 157.26 18.7232 156.559 16.0698C156.412 15.517 155.822 14.4851 156.78 14.3746C157.739 14.264 159.176 13.6006 159.729 14.8536C160.503 16.6963 161.829 17.0648 163.561 16.9911C165.22 16.9174 166.878 17.028 168.537 16.9911C170.269 16.9542 171.411 15.8118 171.448 14.3008C171.448 12.8267 170.232 11.6474 168.537 11.6106C166.325 11.5737 164.114 11.6106 161.903 11.5737C158.476 11.5 156.265 9.28886 156.338 6.08266C156.412 3.02387 158.697 0.886401 161.977 0.849548C163.193 0.849548 164.446 0.849551 165.662 0.886403Z" fill="white"/>
<path d="M98.1114 20.3447C92.8783 16.3277 87.682 12.3476 82.1172 8.10953C82.1172 12.0528 82.0435 15.517 82.1541 18.9811C82.2278 20.4921 81.6013 20.6395 80.3483 20.6395C79.0953 20.6395 78.5425 20.4552 78.5794 18.9811C78.6899 13.1215 78.6162 7.22505 78.6162 0.960066C84.1073 5.12444 89.3036 9.1414 94.8315 13.3426C94.8315 9.54679 94.9052 6.08261 94.7946 2.61844C94.7578 1.18118 95.1632 0.775804 96.5636 0.812657C97.964 0.812657 98.4431 1.10748 98.4062 2.61844C98.2957 7.8884 98.3694 13.1584 98.3325 18.4283C98.3694 19.018 98.5905 19.6813 98.1114 20.3447Z" fill="white"/>
<path d="M44.4533 10.8366C44.4533 13.6743 44.3427 16.4751 44.4902 19.3128C44.5639 21.1186 43.3846 20.4921 42.5738 20.5289C41.7262 20.5658 40.768 20.8606 40.9154 19.2391C41.0997 17.1016 40.9154 14.9641 40.9891 12.7898C41.026 11.7948 40.7312 11.3894 39.6624 11.3894C36.3457 11.4631 33.0289 11.4631 29.7121 11.3894C28.6065 11.3526 28.2012 11.6474 28.238 12.8267C28.3117 14.9641 28.2012 17.1385 28.3117 19.2759C28.3486 20.4184 27.8695 20.7132 26.9113 20.4921C26.1005 20.3078 24.6633 21.3028 24.7001 19.3128C24.737 13.5637 24.737 7.77783 24.7001 2.02878C24.6633 0.222993 25.9163 0.960046 26.727 0.849487C27.5747 0.738928 28.4223 0.665218 28.3117 2.06563C28.1643 3.57659 28.3117 5.12441 28.2749 6.67224C28.238 7.5567 28.4223 7.99894 29.4542 7.99894C32.8815 7.92523 36.3088 7.96209 39.773 7.99894C40.768 7.99894 41.026 7.59356 41.026 6.70909C40.9891 5.16127 41.1365 3.61345 40.9891 2.10248C40.8417 0.480956 41.8736 0.849487 42.7212 0.849487C43.6057 0.849487 44.6744 0.444108 44.6007 2.17619C44.3427 5.05072 44.4533 7.96209 44.4533 10.8366Z" fill="white"/>
<path d="M14.16 20.5658C12.3174 20.4184 10.1062 20.8238 7.9319 20.1973C3.32529 18.9074 0.155935 14.3008 0.745582 9.73105C1.40893 4.5348 5.31534 0.960073 10.3642 0.886367C13.2019 0.849514 16.0027 0.923218 18.8404 0.849512C20.1302 0.812659 20.5356 1.18119 20.4619 2.47104C20.3882 3.68718 20.425 4.5348 18.7298 4.42424C16.2238 4.27683 13.7178 4.35054 11.175 4.38739C7.08428 4.42424 4.28346 6.96709 4.20976 10.6524C4.1729 14.3008 6.97372 16.9174 11.0644 17.0279C13.6441 17.0648 16.2238 17.1385 18.8035 17.0279C20.3513 16.9542 20.4619 17.6544 20.425 18.9074C20.425 20.0499 20.3145 20.7501 18.8772 20.6395C17.4399 20.4552 15.9658 20.5658 14.16 20.5658Z" fill="white"/>
<path d="M57.7203 0.775818C61.1108 7.51989 64.3538 13.9323 67.6706 20.4553C67.0072 20.4921 66.6019 20.4921 66.1965 20.5658C64.4275 20.8975 63.4694 20.1604 62.7323 18.5021C61.2582 15.259 59.563 12.1634 57.7572 8.66234C56.5779 10.9472 55.546 12.9373 54.5141 14.8905C54.0719 15.7749 53.5191 16.6226 53.2243 17.507C52.3398 20.1236 50.7183 21.266 47.77 20.271C50.9762 13.9692 54.2561 7.51989 57.7203 0.775818Z" fill="white"/>
<path d="M70.84 10.5418C70.84 7.70414 70.9138 4.90332 70.8032 2.06565C70.7295 0.223003 72.0193 0.99692 72.7932 0.886362C73.6777 0.73895 74.3779 0.738946 74.3779 2.1025C74.3042 7.8147 74.2674 13.5269 74.3779 19.2391C74.4148 21.1554 73.1249 20.3815 72.2773 20.5289C71.2454 20.7132 70.7295 20.4552 70.8032 19.2022C70.9138 16.3277 70.84 13.4163 70.84 10.5418Z" fill="white"/>
<path d="M152.064 10.763C152.064 13.6006 151.99 16.4015 152.101 19.2391C152.174 20.9712 151.106 20.4921 150.184 20.529C149.263 20.5658 148.452 20.7501 148.489 19.2023C148.6 13.5638 148.6 7.88844 148.489 2.24995C148.452 0.665278 149.3 0.849547 150.295 0.849547C151.29 0.849547 152.174 0.702133 152.101 2.28681C151.953 5.08762 152.064 7.92529 152.064 10.763Z" fill="white"/>
<path d="M141.671 5.08757C142.371 4.75589 142.85 4.60848 143.514 5.4561C146.278 8.99397 145.025 16.2908 141.229 18.6494C140.492 19.0917 140.086 18.6494 139.644 18.244C138.391 17.1753 137.175 16.0697 135.996 14.9273C135.332 14.2639 134.853 14.2639 134.19 14.9273C132.974 16.1434 131.647 17.2122 130.431 18.4283C129.694 19.1285 129.178 18.9074 128.588 18.3177C127.888 17.6544 128.146 17.1753 128.736 16.6594C130.541 15.001 132.347 13.3795 134.116 11.6842C134.485 11.3157 135.296 11.0209 134.743 10.2101C134.964 9.989 135.222 9.989 135.48 10.0627C136.696 11.5 138.096 12.7898 139.497 14.0428C140.639 15.0747 141.155 14.9273 141.745 13.4532C142.482 11.6474 142.629 9.80473 141.782 7.96209C141.413 7.18818 140.897 6.48798 141.155 5.52981C141.192 5.27184 141.376 5.12442 141.671 5.08757Z" fill="white"/>
<path d="M135.443 10.2101C135.185 10.2101 134.927 10.2101 134.669 10.2101C133.305 8.99398 131.831 7.8884 130.541 6.5617C129.473 5.49296 128.957 5.89835 128.404 6.96708C127.114 9.47307 126.967 12.0159 128.441 14.4851C128.994 15.4064 129.03 16.0329 128.072 16.5857C126.93 17.249 126.709 16.2171 126.34 15.5906C124.129 11.5368 124.866 6.89337 128.072 3.57661C129.104 2.50788 129.989 2.43417 130.984 3.57661C131.536 4.20311 132.237 4.75591 132.863 5.3087C135.111 7.22505 135.148 7.2619 137.396 5.27185C138.244 4.49794 139.017 3.61346 139.828 2.8027C141.929 2.8027 142.482 3.46606 141.671 5.08758C141.597 5.19814 141.524 5.30869 141.45 5.3824C140.16 6.96707 138.538 8.22008 137.064 9.58363C136.659 9.95216 136.143 10.3575 135.443 10.2101Z" fill="white"/>
<path d="M139.828 2.80275C138.76 3.4661 137.728 3.72408 136.401 3.28185C135.332 2.91332 134.116 3.02387 132.974 3.42925C132.163 3.72408 131.426 3.65037 130.799 2.91332C130.283 2.32367 130.173 1.88143 130.984 1.54976C133.674 0.481023 136.327 0.370465 139.018 1.54976C139.644 1.77087 139.939 2.1394 139.828 2.80275Z" fill="white"/>
<path d="M135.038 20.5658C133.711 20.5658 132.606 20.5658 131.611 20.0498C131.168 19.8287 130.321 19.7919 130.579 19.0916C130.8 18.4283 131.353 17.7281 132.2 17.9124C134.117 18.3914 136.033 18.502 137.949 17.8387C138.797 17.5438 139.313 18.4283 139.571 19.0179C139.902 19.7181 139.018 19.8656 138.576 20.0498C137.396 20.5289 136.107 20.6763 135.038 20.5658Z" fill="white"/>
<path d="M120.591 9.98901C119.964 9.36251 119.743 8.92028 120.038 7.96211C121.254 4.23997 118.896 0.923215 114.989 0.886362C111.304 0.812656 107.619 0.923212 103.97 0.849507C102.754 0.812654 102.57 1.29174 102.607 2.32362C102.68 5.08759 102.644 7.85155 102.644 10.5787C102.644 13.5269 102.644 16.4751 102.644 19.3865C102.644 20.0498 102.644 20.5658 103.565 20.5289C108.024 20.4921 112.52 20.6026 116.979 20.4184C119.412 20.3078 121.181 18.7232 121.955 16.4014C122.765 14.0797 122.47 11.7948 120.591 9.98901ZM107.582 4.35053C109.904 4.49794 112.225 4.38738 114.547 4.38738C115.8 4.38738 116.832 4.75591 116.795 6.19317C116.795 7.55673 115.837 8.07267 114.547 8.03582C113.368 7.99896 112.225 8.03582 111.046 8.03582C109.867 8.03582 108.724 7.92526 107.545 8.07267C105.702 8.25694 106.218 7.00394 106.145 6.04576C106.145 5.05074 106.071 4.23997 107.582 4.35053ZM115.69 16.9911C114.363 17.0279 112.999 16.9911 111.673 16.9911C110.272 16.9911 108.872 16.9542 107.471 17.0279C106.476 17.0648 106.255 16.6962 106.255 15.7381C106.108 11.4263 106.108 11.4263 110.309 11.4263C112.152 11.4263 113.957 11.3894 115.8 11.4263C117.606 11.4631 118.859 12.6424 118.896 14.1534C118.859 15.8486 117.643 16.9542 115.69 16.9911Z" fill="white"/>
<path d="M142.592 5.89838C143.956 6.8934 144.03 8.44122 144.177 9.80477C144.509 12.5687 143.514 14.9642 141.671 17.0279C140.971 17.8387 140.418 17.9861 139.607 17.1016C138.502 15.9592 137.212 15.001 136.106 13.8586C135.296 13.011 134.743 13.1952 134.006 13.9323C132.605 15.3327 131.168 16.7331 129.51 17.8387C129.067 17.1754 129.583 16.9542 129.841 16.6963C130.873 15.7381 131.942 14.8168 132.974 13.8586C135.222 11.7948 135.222 11.7948 137.507 13.9323C138.059 14.4482 138.575 14.9273 139.128 15.4433C140.787 17.0648 141.303 17.0279 142.445 14.9273C143.809 12.495 143.993 9.95219 142.924 7.33564C142.703 6.93025 142.261 6.56173 142.592 5.89838Z" fill="white"/>
<path d="M127.556 15.4433C125.787 13.6743 125.345 9.98906 126.561 7.2988C126.672 7.07769 126.782 6.85657 126.893 6.63546C128.662 3.3187 129.141 3.24499 131.868 5.60357C135.185 8.51494 135.185 8.51494 138.465 5.4193C139.054 4.86651 139.644 4.38743 140.271 3.87149C140.381 3.76093 140.602 3.79778 140.75 3.76093C141.081 4.31372 140.676 4.60854 140.381 4.86651C139.091 6.08266 137.728 7.2251 136.438 8.44124C135.517 9.32571 134.743 9.58368 133.711 8.40439C132.716 7.26195 131.426 6.37748 130.357 5.27189C129.583 4.49798 129.03 4.60854 128.441 5.4193C126.488 7.999 126.045 10.7998 127.151 13.8955C127.372 14.3745 127.851 14.8168 127.556 15.4433Z" fill="white"/>
<path d="M131.647 18.7231C134.043 19.0917 136.069 19.1654 138.354 18.6863C136.917 20.1235 133.453 20.1604 131.647 18.7231Z" fill="white"/>
</svg>
