<svg width="1710" height="196" viewBox="0 0 1710 196" fill="none" xmlns="http://www.w3.org/2000/svg">
<path d="M1617.67 2.2714C1631.4 2.2714 1645.48 1.91018 1659.21 2.2714C1681.25 3.35508 1696.78 14.1918 1704.73 34.7816C1707.25 41.2837 1713.76 52.1204 1704 54.649C1694.97 57.1775 1679.8 61.5122 1674.38 51.0367C1667.16 36.5877 1656.68 36.5877 1644.76 36.5877C1624.89 36.5877 1605.03 36.5877 1585.16 36.5877C1571.79 36.5877 1559.87 39.4775 1560.24 55.3714C1560.6 70.904 1572.52 73.7938 1585.88 73.7938C1606.47 73.4326 1626.7 73.4326 1647.29 73.7938C1683.05 74.1551 1708.34 99.0796 1708.34 133.396C1708.34 168.796 1683.05 194.443 1646.93 194.804C1626.34 195.165 1606.11 195.165 1585.52 194.804C1558.07 194.443 1535.31 177.104 1528.45 151.096C1527 145.678 1521.22 135.563 1530.61 134.48C1540.01 133.396 1554.09 126.894 1559.51 139.176C1567.1 157.237 1580.1 160.849 1597.08 160.126C1613.34 159.404 1629.59 160.488 1645.85 160.126C1662.82 159.765 1674.02 148.567 1674.38 133.757C1674.38 119.308 1662.46 107.749 1645.85 107.388C1624.17 107.027 1602.5 107.388 1580.83 107.027C1547.23 106.304 1525.56 84.6306 1526.28 53.2041C1527 23.2225 1549.4 2.27138 1581.55 1.91016C1593.47 1.91016 1605.75 1.91018 1617.67 2.2714Z" fill="#5A5A5A"/>
<path d="M955.551 192.998C904.257 153.624 853.324 114.612 798.779 73.0711C798.779 111.722 798.056 145.677 799.14 179.632C799.863 194.443 793.722 195.887 781.44 195.887C769.158 195.887 763.74 194.081 764.101 179.632C765.185 122.198 764.463 64.4016 764.463 2.99342C818.285 43.8118 869.218 83.1853 923.402 124.365C923.402 87.1588 924.124 53.2036 923.04 19.2485C922.679 5.16077 926.653 1.18732 940.379 1.54854C954.106 1.54854 958.802 4.43832 958.44 19.2485C957.357 70.9036 958.079 122.559 957.718 174.214C958.079 179.994 960.247 186.495 955.551 192.998Z" fill="#5A5A5A"/>
<path d="M429.605 99.8015C429.605 127.616 428.521 155.069 429.966 182.883C430.689 200.583 419.129 194.442 411.182 194.803C402.874 195.165 393.482 198.054 394.927 182.161C396.733 161.21 394.927 140.259 395.65 118.946C396.011 109.193 393.121 105.22 382.646 105.22C350.135 105.942 317.625 105.942 285.115 105.22C274.278 104.859 270.305 107.748 270.666 119.308C271.388 140.259 270.305 161.571 271.388 182.522C271.75 193.72 267.054 196.61 257.662 194.442C249.715 192.636 235.627 202.389 235.988 182.883C236.349 126.532 236.349 69.8198 235.988 13.4688C235.627 -4.2312 247.909 2.99324 255.856 1.90957C264.164 0.825895 272.472 0.103402 271.388 13.8299C269.943 28.6401 271.388 43.8116 271.027 58.983C270.666 67.6524 272.472 71.9871 282.586 71.9871C316.18 71.2647 349.774 71.6259 383.729 71.9871C393.482 71.9871 396.011 68.0136 396.011 59.3443C395.65 44.1728 397.095 29.0014 395.65 14.1912C394.205 -1.7027 404.319 1.90957 412.627 1.90957C421.297 1.90957 431.772 -2.06388 431.05 14.9137C428.521 43.0892 429.605 71.6259 429.605 99.8015Z" fill="#5A5A5A"/>
<path d="M132.676 195.166C114.615 193.721 92.9415 197.694 71.6292 191.553C26.4761 178.91 -4.58922 133.757 1.19038 88.9656C7.69242 38.0329 45.9823 2.9941 95.4701 2.27165C123.284 1.91043 150.738 2.63285 178.552 1.9104C191.195 1.54918 195.168 5.1614 194.446 17.8043C193.723 29.7247 194.085 38.0329 177.468 36.9492C152.905 35.5043 128.342 36.2268 103.417 36.588C63.3211 36.9492 35.868 61.8737 35.1455 97.9962C34.7843 133.757 62.2374 159.404 102.333 160.488C127.619 160.849 152.905 161.572 178.191 160.488C193.362 159.766 194.446 166.629 194.085 178.91C194.085 190.108 193.001 196.972 178.913 195.888C164.825 194.082 150.376 195.166 132.676 195.166Z" fill="#5A5A5A"/>
<path d="M559.645 1.1875C592.878 67.2916 624.665 130.145 657.176 194.082C650.674 194.443 646.7 194.443 642.727 195.165C625.388 198.416 615.996 191.192 608.772 174.937C594.323 143.149 577.706 112.806 560.006 78.4897C548.447 100.886 538.333 120.392 528.218 139.537C523.884 148.206 518.465 156.514 515.576 165.184C506.906 190.831 491.012 202.029 462.114 192.275C493.541 130.506 525.69 67.2916 559.645 1.1875Z" fill="#5A5A5A"/>
<path d="M688.242 96.9124C688.242 69.0981 688.965 41.645 687.881 13.8307C687.158 -4.23055 699.801 3.35524 707.387 2.27157C716.056 0.826667 722.92 0.826622 722.92 14.1919C722.197 70.1818 721.836 126.172 722.92 182.161C723.281 200.945 710.638 193.359 702.33 194.804C692.216 196.61 687.158 194.082 687.881 181.8C688.965 153.625 688.242 125.088 688.242 96.9124Z" fill="#5A5A5A"/>
<path d="M1484.38 99.0814C1484.38 126.896 1483.66 154.349 1484.74 182.163C1485.47 199.141 1474.99 194.445 1465.96 194.806C1456.93 195.167 1448.98 196.973 1449.34 181.802C1450.43 126.534 1450.43 70.9058 1449.34 15.6384C1448.98 0.10579 1457.29 1.91196 1467.04 1.91196C1476.8 1.91196 1485.47 0.467037 1484.74 15.9997C1483.3 43.4528 1484.38 71.2671 1484.38 99.0814Z" fill="#5A5A5A"/>
<path d="M1382.52 43.4503C1389.38 40.1993 1394.07 38.7544 1400.58 47.0626C1427.67 81.7402 1415.39 153.263 1378.18 176.381C1370.96 180.716 1366.98 176.381 1362.65 172.408C1350.37 161.932 1338.45 151.095 1326.89 139.897C1320.38 133.395 1315.69 133.395 1309.19 139.897C1297.27 151.818 1284.26 162.293 1272.34 174.214C1265.12 181.077 1260.06 178.91 1254.28 173.13C1247.42 166.628 1249.95 161.932 1255.73 156.875C1273.43 140.62 1291.13 124.726 1308.46 108.11C1312.08 104.497 1320.02 101.607 1314.6 93.6605C1316.77 91.4932 1319.3 91.4932 1321.83 92.2157C1333.75 106.303 1347.48 118.946 1361.2 131.228C1372.4 141.342 1377.46 139.897 1383.24 125.448C1390.46 107.748 1391.91 89.687 1383.6 71.6258C1379.99 64.0401 1374.93 57.1769 1377.46 47.7851C1377.82 45.2565 1379.63 43.8116 1382.52 43.4503Z" fill="#5A5A5A"/>
<path d="M1321.47 93.6585C1318.94 93.6585 1316.41 93.6585 1313.88 93.6585C1300.52 81.7381 1286.07 70.9014 1273.42 57.8973C1262.95 47.4218 1257.89 51.3953 1252.47 61.8708C1239.83 86.4341 1238.38 111.359 1252.83 135.561C1258.25 144.591 1258.61 150.732 1249.22 156.15C1238.02 162.652 1235.86 152.538 1232.24 146.397C1210.57 106.663 1217.79 61.1483 1249.22 28.6381C1259.34 18.1626 1268.01 17.4401 1277.76 28.6381C1283.18 34.7789 1290.04 40.1973 1296.18 45.6157C1318.22 64.3994 1318.58 64.7606 1340.61 45.2545C1348.92 37.6687 1356.51 28.9993 1364.45 21.0524C1385.04 21.0524 1390.46 27.5545 1382.51 43.4483C1381.79 44.532 1381.07 45.6156 1380.35 46.3381C1367.7 61.8707 1351.81 74.1525 1337.36 87.5178C1333.39 91.13 1328.33 95.1034 1321.47 93.6585Z" fill="#5A5A5A"/>
<path d="M1364.45 21.0574C1353.98 27.5595 1343.86 30.0881 1330.86 25.7534C1320.38 22.1412 1308.46 23.2248 1297.26 27.1983C1289.32 30.0881 1282.09 29.3657 1275.95 22.1412C1270.89 16.3616 1269.81 12.0268 1277.76 8.77582C1304.13 -1.6997 1330.14 -2.78337 1356.51 8.77582C1362.65 10.9432 1365.54 14.5554 1364.45 21.0574Z" fill="#5A5A5A"/>
<path d="M1317.5 195.165C1304.49 195.165 1293.66 195.165 1283.9 190.108C1279.57 187.941 1271.26 187.58 1273.79 180.716C1275.96 174.214 1281.37 167.351 1289.68 169.157C1308.47 173.853 1327.25 174.937 1346.03 168.435C1354.34 165.545 1359.4 174.214 1361.93 179.994C1365.18 186.857 1356.51 188.302 1352.17 190.108C1340.62 194.804 1327.97 196.249 1317.5 195.165Z" fill="#5A5A5A"/>
<path d="M1175.89 91.4936C1169.75 85.3528 1167.58 81.0181 1170.47 71.6263C1182.39 35.1426 1159.28 2.63243 1120.99 2.27121C1084.86 1.54876 1048.74 2.63241 1012.98 1.90996C1001.06 1.54874 999.252 6.24466 999.614 16.3589C1000.34 43.4508 999.975 70.5426 999.975 97.2732C999.975 126.171 999.975 155.069 999.975 183.606C999.975 190.108 999.975 195.165 1009.01 194.804C1052.71 194.443 1096.78 195.526 1140.49 193.72C1164.33 192.637 1181.67 177.104 1189.26 154.347C1197.2 131.59 1194.31 109.194 1175.89 91.4936ZM1048.38 36.2263C1071.14 37.6712 1093.89 36.5875 1116.65 36.5875C1128.93 36.5875 1139.05 40.1998 1138.69 54.2875C1138.69 67.6528 1129.29 72.71 1116.65 72.3488C1105.09 71.9875 1093.89 72.3488 1082.33 72.3488C1070.78 72.3488 1059.58 71.2651 1048.02 72.71C1029.96 74.5161 1035.01 62.2345 1034.29 52.8427C1034.29 43.0896 1033.57 35.1426 1048.38 36.2263ZM1127.85 160.126C1114.84 160.488 1101.48 160.126 1088.47 160.126C1074.75 160.126 1061.02 159.765 1047.3 160.488C1037.54 160.849 1035.37 157.237 1035.37 147.845C1033.93 105.581 1033.93 105.581 1075.11 105.581C1093.17 105.581 1110.87 105.22 1128.93 105.581C1146.63 105.943 1158.91 117.502 1159.28 132.312C1158.91 148.928 1146.99 159.765 1127.85 160.126Z" fill="#5A5A5A"/>
<path d="M1391.55 51.3975C1404.91 61.1505 1405.63 76.3219 1407.08 89.6872C1410.33 116.779 1400.58 140.259 1382.51 160.487C1375.65 168.434 1370.23 169.879 1362.29 161.21C1351.45 150.012 1338.81 140.62 1327.97 129.422C1320.02 121.114 1314.6 122.92 1307.38 130.144C1293.65 143.871 1279.57 157.597 1263.31 168.434C1258.98 161.932 1264.03 159.765 1266.56 157.236C1276.68 147.844 1287.15 138.814 1297.27 129.422C1319.3 109.193 1319.3 109.193 1341.7 130.144C1347.11 135.202 1352.17 139.897 1357.59 144.955C1373.85 160.848 1378.9 160.487 1390.1 139.897C1403.47 116.057 1405.27 91.1321 1394.8 65.4852C1392.63 61.5117 1388.29 57.8995 1391.55 51.3975Z" fill="#5A5A5A"/>
<path d="M1244.16 144.957C1226.83 127.619 1222.49 91.4962 1234.41 65.1268C1235.5 62.9595 1236.58 60.7922 1237.66 58.6248C1255 26.1146 1259.7 25.3921 1286.43 48.5105C1318.94 77.0472 1318.94 77.0472 1351.09 46.7043C1356.87 41.286 1362.65 36.5901 1368.79 31.533C1369.87 30.4493 1372.04 30.8104 1373.48 30.4492C1376.73 35.8676 1372.76 38.7574 1369.87 41.286C1357.23 53.2064 1343.86 64.4044 1331.22 76.3248C1322.19 84.9942 1314.6 87.5227 1304.49 75.9635C1294.74 64.7656 1282.09 56.0962 1271.62 45.2595C1264.03 37.6737 1258.61 38.7574 1252.83 46.7043C1233.69 71.9901 1229.35 99.4431 1240.19 129.786C1242.36 134.482 1247.05 138.817 1244.16 144.957Z" fill="#5A5A5A"/>
<path d="M1284.26 177.105C1307.74 180.718 1327.61 181.44 1350 176.744C1335.92 190.832 1301.96 191.193 1284.26 177.105Z" fill="#5A5A5A"/>
</svg>
