<svg width="24" height="24" viewBox="0 0 24 24" fill="none" xmlns="http://www.w3.org/2000/svg">
<path d="M7.98846 9.49122L5.67907 7.51305C4.15594 6.20286 4.15084 4.30146 3.98828 3.01953C5.65462 3.09861 6.94537 3.24947 8.0694 4.19897L9.24527 5.53489L10.5178 6.96356M19.4593 18.4181L16.4945 15.4183M14.0235 18.4181C14.0461 18.1459 14.2243 17.4401 15.0428 16.6839C15.7771 16.0054 17.3696 14.3794 18.0852 13.6743C18.4906 13.2749 19.1552 12.9947 19.4593 12.9952M15.5703 12.8081L16.9069 14.2869M13.6783 14.4363L15.1725 15.7499M20.4636 17.9803C21.294 17.9819 22.0031 18.5952 22.0015 19.4251C21.9999 20.2549 21.294 20.9825 20.4636 20.981C19.6332 20.9794 18.9928 20.2492 18.9944 19.4194C19.048 18.5936 19.6588 18.0913 20.4636 17.9803Z" stroke="white" stroke-width="1.5" stroke-linecap="round" stroke-linejoin="round"/>
<path d="M4.59691 18.393L7.55488 15.5007M4.56255 12.9871C4.835 13.0092 5.59455 13.1911 6.27498 14.0411C6.8997 14.8214 8.58469 16.3306 9.2916 17.0443C9.692 17.4487 9.97203 18.0891 9.97203 18.393M7.26548 14.2299L15.5045 4.66412C16.8452 3.168 18.7189 3.13531 20.0046 2.99805C19.8928 4.66142 19.7165 5.9481 18.7445 7.05254L8.55057 15.9263M5.00716 19.4988C5.00716 20.3286 4.33399 21.0014 3.50358 21.0014C2.67318 21.0014 2 20.3286 2 19.4988C2 18.6689 2.67318 17.9962 3.50358 17.9962C4.33399 17.9962 5.00716 18.6689 5.00716 19.4988Z" stroke="white" stroke-width="1.5" stroke-linecap="round" stroke-linejoin="round"/>
</svg>
