<svg width="14" height="14" viewBox="0 0 14 14" fill="none" xmlns="http://www.w3.org/2000/svg">
<rect opacity="0.12" x="1.75" y="4.66666" width="10.5" height="8.16667" rx="4" fill="white"/>
<path fill-rule="evenodd" clip-rule="evenodd" d="M9.16634 2.62466V2.33365C9.16634 2.10364 8.9803 1.91683 8.75033 1.91666H7.00033C5.82995 1.91666 4.87601 2.84494 4.83473 4.00525C5.10619 3.95225 5.38594 3.92234 5.67188 3.91763C5.71222 3.91697 5.75879 3.91666 5.83301 3.91666H8.16699L8.32812 3.91763C10.8903 3.95978 12.9569 6.02635 12.999 8.58853C12.9997 8.62888 13 8.67545 13 8.74966C13 8.82392 12.9997 8.87045 12.999 8.9108C12.9571 11.4732 10.8904 13.5405 8.32812 13.5827C8.28778 13.5833 8.24121 13.5836 8.16699 13.5836H5.83301C5.75879 13.5836 5.71222 13.5833 5.67188 13.5827C3.10955 13.5405 1.04291 11.4732 1.00098 8.9108C1.00032 8.87045 1 8.82392 1 8.74966C1 8.67545 1.00032 8.62888 1.00098 8.58853C1.02909 6.87966 1.95773 5.39125 3.33333 4.57689V4.08365C3.33333 2.05861 4.97528 0.416656 7.00033 0.416656H8.75033C9.80872 0.416833 10.6663 1.27521 10.6663 2.33365V2.62466C10.6663 3.03888 10.3306 3.37466 9.91634 3.37466C9.50228 3.37449 9.16634 3.03877 9.16634 2.62466ZM11.5 8.61392C11.4713 6.86063 10.056 5.44535 8.30273 5.41666H5.69727C3.94397 5.44535 2.52869 6.86063 2.5 8.61392V8.88638C2.52869 10.6397 3.94397 12.054 5.69727 12.0827L5.70097 12.0827C5.72536 12.0831 5.75726 12.0836 5.83301 12.0836H8.16699C8.24274 12.0836 8.27464 12.0831 8.29903 12.0827L8.30273 12.0827C10.056 12.054 11.4713 10.6397 11.5 8.88638V8.61392ZM6.25 8.16666V9.33365C6.25018 9.74771 6.5859 10.0836 7 10.0836C7.4141 10.0836 7.74982 9.74771 7.75 9.33365V8.16666C7.75 7.75244 7.41421 7.41666 7 7.41666C6.58579 7.41666 6.25 7.75244 6.25 8.16666Z" fill="white"/>
</svg>
